:SAMPLES-PER-SECOND 30
:FULLY-SPECIFIED
:DEGREES
352
root  -60.9152 26.0013 52.4661 -156.538 -46.7178 167.028
RightUpLeg  -37.6538 25.6254 -30.6426
RightLeg  72.7468 -7.86424 -19.8396
RightFoot  -36.0055 4.37468 13.7846
RightToes  -11.1134 -0.0376479 -0.101823
Spine  15.0136 -0.273518 2.11534
Spine1  27.8179 1.16166 2.66171
HEad  21.6875 6.83464 -7.79347
LeftShoulder1  0 -2.42657e-020 -4.95415e-022
LeftArm  -22.873 -4.0735 -87.9405
LeftForeArm  31.2897 -33.6961 -6.74564
LeftHand  -0.0481503 -12.7279 0.0618027
RightShoulder  0 2.42657e-020 1.07489e-018
RightArm  -83.4413 12.2035 63.9214
RightForeArm  12.0311 23.4735 4.38447
RightHand  1.14929 23.9593 5.78407
LeftUpLeg  -64.1866 4.11769 2.43728
LeftLeg  59.0432 1.36633 1.96662
LeftFoot  5.47054 0.0129033 -0.270089
LeftToes  -109.95 1.18758e-006 1.19596e-007
353
root  -62.3231 26.8994 53.1103 -158.022 -45.1148 169.937
RightUpLeg  -34.9319 24.8102 -30.5271
RightLeg  65.8335 -11.4332 -20.6533
RightFoot  -30.3673 3.48514 13.1704
RightToes  -9.115 -0.0294322 -0.0840823
Spine  14.4315 -1.35565 1.92927
Spine1  27.0233 -1.28425 2.10462
HEad  22.339 11.3222 -8.27122
LeftShoulder1  0 -2.42657e-020 -4.95415e-022
LeftArm  -23.3954 -2.31241 -85.7726
LeftForeArm  32.1818 -34.9531 -7.07344
LeftHand  -0.0700868 -10.5886 0.386617
RightShoulder  0 2.42657e-020 1.07489e-018
RightArm  -74.617 8.60729 65.1069
RightForeArm  11.1749 30.8698 6.04407
RightHand  1.09307 22.6568 5.82385
LeftUpLeg  -62.6979 4.64072 2.19851
LeftLeg  58.3154 1.00261 1.40231
LeftFoot  4.40337 0.0122755 -0.319304
LeftToes  -112.137 1.18758e-006 1.19596e-007
354
root  -63.5437 27.9336 53.6417 -158.88 -43.7511 172.422
RightUpLeg  -32.5526 19.7314 -28.8282
RightLeg  58.9139 -13.8252 -19.0457
RightFoot  -26.7068 2.6811 11.6384
RightToes  -4.00374 -0.0112779 -0.0375045
Spine  14.1056 -2.42851 1.73794
Spine1  26.6547 -3.54413 1.29354
HEad  22.3827 15.9841 -9.49628
LeftShoulder1  0 -2.42657e-020 -4.95415e-022
LeftArm  -24.9701 -0.946121 -83.4097
LeftForeArm  32.7833 -35.4209 -7.19788
LeftHand  -0.0804263 -10.6926 0.489764
RightShoulder  0 2.42657e-020 1.07489e-018
RightArm  -64.8699 6.61409 65.3963
RightForeArm  10.5059 37.7107 7.83361
RightHand  0.632602 22.3765 3.56852
LeftUpLeg  -60.5189 4.63888 2.33965
LeftLeg  55.5422 0.786408 0.992399
LeftFoot  4.13404 0.0137868 -0.257242
LeftToes  -113.528 1.18758e-006 1.19596e-007
355
root  -64.7037 29.0222 54.2849 -156.921 -42.0619 171.484
RightUpLeg  -31.3033 11.0838 -28.6168
RightLeg  52.6128 -9.29236 -10.5428
RightFoot  -22.1221 1.06969 5.84568
RightToes  -21.3369 -0.0890363 -0.187484
Spine  13.5841 -4.00917 0.506085
Spine1  25.8869 -6.84895 -0.977091
HEad  21.5694 20.7389 -9.52209
LeftShoulder1  0 -2.42657e-020 -4.95415e-022
LeftArm  -26.9589 0.804647 -80.076
LeftForeArm  32.9371 -36.0514 -7.36847
LeftHand  0.00874 -11.2463 -0.458999
RightShoulder  0 2.42657e-020 1.07489e-018
RightArm  -58.5898 6.42584 68.2106
RightForeArm  11.5663 45.5513 10.3656
RightHand  0.215643 22.5338 1.45283
LeftUpLeg  -57.132 -2.35152 5.85083
LeftLeg  47.7977 1.1673 1.12467
LeftFoot  8.12325 0.00200834 -0.0282924
LeftToes  -130.594 1.18758e-006 1.19596e-007
356
root  -65.2639 29.8268 54.2989 -159.439 -40.6202 175.722
RightUpLeg  -30.7691 9.10598 -22.2922
RightLeg  51.7435 -7.1653 -7.94978
RightFoot  -19.6825 0.628573 4.00002
RightToes  -28.3913 -0.133001 -0.240631
Spine  13.6485 -3.98268 0.360057
Spine1  26.0833 -6.92703 -1.44261
HEad  22.0667 23.9273 -8.10776
LeftShoulder1  0 -2.42657e-020 -4.95415e-022
LeftArm  -27.5219 1.43669 -76.7862
LeftForeArm  32.0175 -36.7111 -7.5508
LeftHand  -0.0388115 -10.6576 0.0461779
RightShoulder  0 2.42657e-020 1.07489e-018
RightArm  -55.078 4.84126 72.5107
RightForeArm  20.6999 56.6673 15.607
RightHand  -0.727246 22.9357 -3.21457
LeftUpLeg  -54.4708 4.04777 4.66477
LeftLeg  49.0195 -2.27892 -2.31129
LeftFoot  3.12278 0.0101495 -0.372354
LeftToes  -82.2834 1.18758e-006 1.19596e-007
357
root  -65.8293 30.4413 54.4473 -159.653 -39.5295 177.474
RightUpLeg  -30.9167 6.17349 -17.6916
RightLeg  53.2233 -5.79314 -6.80251
RightFoot  -17.8167 0.424473 3.08523
RightToes  -32.1198 -0.158788 -0.266426
Spine  13.5074 -4.00436 0.214029
Spine1  25.7286 -6.78121 -2.23978
HEad  22.1978 26.1039 -7.87038
LeftShoulder1  0 -2.42657e-020 -4.95415e-022
LeftArm  -28.8798 1.44016 -74.7882
LeftForeArm  31.7542 -36.6549 -7.53536
LeftHand  0.00581099 -9.36947 -0.441191
RightShoulder  0 2.42657e-020 1.07489e-018
RightArm  -51.2666 3.25109 76.0654
RightForeArm  35.3529 67.1337 24.8763
RightHand  -1.79403 23.2467 -8.33792
LeftUpLeg  -52.7517 3.99654 6.3774
LeftLeg  47.8699 -4.14104 -4.02212
LeftFoot  0.496114 0.00101878 -0.235324
LeftToes  -57.6886 1.18758e-006 1.19596e-007
358
root  -66.4018 30.8666 54.6344 -158.958 -38.5715 177.958
RightUpLeg  -30.8217 3.21388 -14.1225
RightLeg  54.6171 -3.95252 -4.91416
RightFoot  -15.3682 0.221908 2.02223
RightToes  -36.5322 -0.19139 -0.294707
Spine  13.4338 -3.73144 -0.0618139
Spine1  25.3533 -6.03119 -2.99784
HEad  22.4066 26.5292 -7.12648
LeftShoulder1  0 -2.42657e-020 -4.95415e-022
LeftArm  -30.3342 0.506014 -74.014
LeftForeArm  30.2398 -36.529 -7.5014
LeftHand  0.0810084 -8.52374 -1.45815
RightShoulder  0 2.42657e-020 1.07489e-018
RightArm  -47.2129 2.3364 78.6707
RightForeArm  54.4595 74.843 41.0231
RightHand  -2.37581 23.4042 -11.0667
LeftUpLeg  -51.6695 2.37962 7.57332
LeftLeg  46.3394 -4.95273 -4.55477
LeftFoot  -1.19651 -0.000315038 -0.0301796
LeftToes  -45.4996 1.18758e-006 1.19596e-007
359
root  -66.9306 31.0965 54.8377 -157.914 -37.8377 177.968
RightUpLeg  -30.441 0.145256 -10.9997
RightLeg  55.3939 -1.49129 -1.95336
RightFoot  -14.5438 0.0778118 0.98738
RightToes  -41.177 -0.227953 -0.321674
Spine  13.4584 -3.20403 -0.436321
Spine1  25.0469 -4.80893 -3.68015
HEad  23.1804 24.0538 -7.0655
LeftShoulder1  0 -2.42657e-020 -4.95415e-022
LeftArm  -31.208 -1.28723 -73.795
LeftForeArm  28.8416 -35.9636 -7.34695
LeftHand  0.141687 -9.9906 -1.99223
RightShoulder  0 2.42657e-020 1.07489e-018
RightArm  -43.2263 2.41934 80.7812
RightForeArm  84.296 78.9254 65.4962
RightHand  -3.14794 23.5508 -14.6518
LeftUpLeg  -51.4186 0.754908 7.92165
LeftLeg  45.476 -4.84641 -4.32532
LeftFoot  -2.89717 0.00454541 0.179736
LeftToes  -36.9804 1.18758e-006 1.19596e-007
360
root  -67.4317 31.1625 54.9936 -156.412 -36.7127 177.489
RightUpLeg  -29.9624 -1.78076 -8.67432
RightLeg  55.5174 1.13786 1.38119
RightFoot  -13.3094 -0.0444273 -0.00324055
RightToes  -45.9875 -0.267993 -0.346387
Spine  13.5854 -2.42867 -1.10035
Spine1  24.803 -3.25647 -4.2731
HEad  23.8576 20.5964 -4.75283
LeftShoulder1  0 -2.42657e-020 -4.95415e-022
LeftArm  -30.9699 -4.10392 -74.0477
LeftForeArm  28.0316 -34.9961 -7.08709
LeftHand  0.195543 -10.6838 -2.46257
RightShoulder  0 2.42657e-020 1.07489e-018
RightArm  -38.4845 4.51966 82.4787
RightForeArm  102.648 79.642 77.0668
RightHand  -3.69642 23.7383 -17.0918
LeftUpLeg  -51.8898 -0.154851 7.84028
LeftLeg  45.8248 -5.82678 -5.25547
LeftFoot  -4.97546 0.0238865 0.549778
LeftToes  -31.1782 1.18758e-006 1.19596e-007
361
root  -67.8987 31.0159 55.1258 -155.124 -36.4149 176.932
RightUpLeg  -28.4906 -3.43985 -6.4186
RightLeg  54.6524 2.98528 3.6139
RightFoot  -12.6468 -0.108067 -0.597668
RightToes  -48.3114 -0.288046 -0.357101
Spine  14.0018 -2.02153 -1.76539
Spine1  24.9535 -2.67954 -4.23564
HEad  24.8485 16.221 -1.87188
LeftShoulder1  0 -2.42657e-020 -4.95415e-022
LeftArm  -63.5909 -12.027 -86.4423
LeftForeArm  58.6353 -34.1173 -6.81213
LeftHand  2.67109 -19.4426 -15.8746
RightShoulder  0 2.42657e-020 1.07489e-018
RightArm  -33.9088 9.91601 84.6693
RightForeArm  85.8494 77.4622 53.0581
RightHand  -4.65856 25.1852 -20.2741
LeftUpLeg  -53.2884 -2.39375 8.16733
LeftLeg  47.5655 -6.59863 -6.31357
LeftFoot  -7.58299 0.0712374 1.0749
LeftToes  -30.3931 1.18758e-006 1.19596e-007
362
root  -68.3642 30.7176 55.1967 -154.021 -36.0542 176.187
RightUpLeg  -26.5674 -4.89379 -4.59087
RightLeg  53.1247 1.26787 1.42422
RightFoot  -16.108 -0.0679931 -0.102964
RightToes  -43.3904 -0.246118 -0.333462
Spine  14.579 -1.21733 -2.28831
Spine1  25.377 -1.34917 -3.50356
HEad  25.4334 10.0545 1.4975
LeftShoulder1  0 -2.42657e-020 -4.95415e-022
LeftArm  -90.7747 -22.5977 -102.466
LeftForeArm  84.724 -44.3504 -9.79711
LeftHand  9.60812 -26.8242 -39.2085
RightShoulder  0 2.42657e-020 1.07489e-018
RightArm  -31.0857 16.9556 86.3396
RightForeArm  67.4916 69.0372 27.5277
RightHand  -5.13691 25.97 -21.6519
LeftUpLeg  -54.8934 -5.23014 8.71329
LeftLeg  50.0528 -6.74247 -7.0288
LeftFoot  -9.70214 0.128304 1.51167
LeftToes  -25.4777 1.18758e-006 1.19596e-007
363
root  -68.7572 30.174 55.2199 -152.271 -36.03 175.242
RightUpLeg  -25.664 -6.40097 -2.74199
RightLeg  52.4809 -3.95275 -4.55445
RightFoot  -20.4157 0.396127 2.57722
RightToes  -37.1301 -0.195972 -0.298343
Spine  15.5849 0.0459527 -2.36167
Spine1  26.2349 2.16749 -3.40623
HEad  25.4303 4.04842 4.82695
LeftShoulder1  0 -2.42657e-020 -4.95415e-022
LeftArm  -90.9352 -27.3306 -114.487
LeftForeArm  95.1442 -53.0217 -13.3709
LeftHand  12.1762 -28.9011 -45.3476
RightShoulder  0 2.42657e-020 1.07489e-018
RightArm  -29.8571 26.0553 85.9286
RightForeArm  60.2779 52.2397 13.1429
RightHand  -6.35737 26.8841 -25.7976
LeftUpLeg  -58.0404 -7.43123 9.25297
LeftLeg  53.5735 -5.94764 -7.02134
LeftFoot  -10.5918 0.148203 1.59871
LeftToes  -26.81 1.18758e-006 1.19596e-007
364
root  -69.1287 29.4369 55.173 -150.662 -35.8263 174.178
RightUpLeg  -25.458 -7.77296 -1.06996
RightLeg  53.7825 -9.15171 -10.8191
RightFoot  -24.9764 1.37346 6.57331
RightToes  -31.6553 -0.155484 -0.263305
Spine  17.549 1.68811 -2.20972
Spine1  28.3332 7.04275 -4.01716
HEad  24.1163 -1.93922 8.28712
LeftShoulder1  0 -2.42657e-020 -4.95415e-022
LeftArm  -82.445 -27.9932 -124.157
LeftForeArm  101.109 -59.5569 -17.2598
LeftHand  12.6253 -27.713 -48.6898
RightShoulder  0 2.42657e-020 1.07489e-018
RightArm  -31.5668 37.6026 83.8203
RightForeArm  60.5901 34.4363 6.8935
RightHand  -6.38553 28.4956 -24.4146
LeftUpLeg  -61.3523 -8.10352 8.64651
LeftLeg  57.8435 -5.1613 -7.10964
LeftFoot  -12.1007 0.194161 1.83166
LeftToes  -33.0634 1.18758e-006 1.19596e-007
365
root  -70.272 31.2752 55.1781 -154.661 -39.924 178.413
RightUpLeg  -12.9484 -7.60195 3.37081
RightLeg  34.9627 -20.0633 -11.7717
RightFoot  -14.9444 1.06504 8.4848
RightToes  -2.83872 -0.00772631 -0.026674
Spine  14.582 1.29881 -15.9885
Spine1  25.3391 -0.349531 -16.3238
HEad  54.4967 -3.77894 36.3265
LeftShoulder1  0 -2.42657e-020 -4.95415e-022
LeftArm  149.604 -7.81491 59.8319
LeftForeArm  46.4741 -2.54839 -0.438252
LeftHand  32.3826 16.2889 127.136
RightShoulder  0 2.42657e-020 1.07489e-018
RightArm  -32.7742 37.6986 79.5501
RightForeArm  19.0035 7.5812 1.34782
RightHand  15.7576 27.2573 59.8135
LeftUpLeg  -59.0205 -23.1452 17.5801
LeftLeg  52.9956 -11.2478 -12.7908
LeftFoot  -5.73325 0.195735 3.9074
LeftToes  -20.6125 1.18758e-006 1.19596e-007
